<svg width="64" height="64" viewBox="0 0 64 64" fill="none" xmlns="http://www.w3.org/2000/svg">
<path d="M0 14C0 6.26801 6.26801 0 14 0H50C57.732 0 64 6.26801 64 14V50C64 57.732 57.732 64 50 64H14C6.26801 64 0 57.732 0 50V14Z" fill="#AD46FF" fill-opacity="0.1"/>
<path d="M45.3334 32H42.0267C41.444 31.9987 40.877 32.1884 40.4122 32.5399C39.9475 32.8915 39.6107 33.3856 39.4534 33.9466L36.3201 45.0933C36.2999 45.1625 36.2578 45.2234 36.2001 45.2666C36.1424 45.3099 36.0722 45.3333 36.0001 45.3333C35.928 45.3333 35.8578 45.3099 35.8001 45.2666C35.7424 45.2234 35.7003 45.1625 35.6801 45.0933L28.3201 18.9066C28.2999 18.8374 28.2578 18.7766 28.2001 18.7333C28.1424 18.69 28.0722 18.6666 28.0001 18.6666C27.928 18.6666 27.8578 18.69 27.8001 18.7333C27.7424 18.7766 27.7003 18.8374 27.6801 18.9066L24.5467 30.0533C24.39 30.6122 24.0553 31.1046 23.5932 31.456C23.1312 31.8073 22.5672 31.9983 21.9867 32H18.6667" stroke="#C27AFF" stroke-width="2.66667" stroke-linecap="round" stroke-linejoin="round"/>
</svg>
