<svg width="64" height="64" viewBox="0 0 64 64" fill="none" xmlns="http://www.w3.org/2000/svg">
<path d="M0 14C0 6.26801 6.26801 0 14 0H50C57.732 0 64 6.26801 64 14V50C64 57.732 57.732 64 50 64H14C6.26801 64 0 57.732 0 50V14Z" fill="#00C950" fill-opacity="0.1"/>
<path d="M37.3334 25.3334H21.3334C19.8607 25.3334 18.6667 26.5273 18.6667 28V36C18.6667 37.4728 19.8607 38.6667 21.3334 38.6667H37.3334C38.8062 38.6667 40.0001 37.4728 40.0001 36V28C40.0001 26.5273 38.8062 25.3334 37.3334 25.3334Z" stroke="#05DF72" stroke-width="2.66667" stroke-linecap="round" stroke-linejoin="round"/>
<path d="M45.3333 30.6666V33.3333" stroke="#05DF72" stroke-width="2.66667" stroke-linecap="round" stroke-linejoin="round"/>
</svg>
