<svg width="64" height="64" viewBox="0 0 64 64" fill="none" xmlns="http://www.w3.org/2000/svg">
<path d="M0 14C0 6.26801 6.26801 0 14 0H50C57.732 0 64 6.26801 64 14V50C64 57.732 57.732 64 50 64H14C6.26801 64 0 57.732 0 50V14Z" fill="#2B7FFF" fill-opacity="0.1"/>
<path d="M34.808 23.4039C35.1781 23.5889 35.5862 23.6852 36 23.6852C36.4138 23.6852 36.8219 23.5889 37.192 23.4039L42.0707 20.9639C42.2741 20.8623 42.5002 20.8144 42.7273 20.8247C42.9545 20.835 43.1753 20.9033 43.3686 21.023C43.562 21.1428 43.7215 21.31 43.832 21.5087C43.9425 21.7075 44.0003 21.9312 44 22.1586V39.1773C43.9999 39.4248 43.9308 39.6674 43.8006 39.878C43.6704 40.0885 43.4841 40.2586 43.2627 40.3693L37.192 43.4053C36.8219 43.5902 36.4138 43.6865 36 43.6865C35.5862 43.6865 35.1781 43.5902 34.808 43.4053L29.192 40.5973C28.8219 40.4123 28.4138 40.316 28 40.316C27.5862 40.316 27.1781 40.4123 26.808 40.5973L21.9293 43.0373C21.7258 43.139 21.4996 43.1869 21.2723 43.1765C21.0451 43.1661 20.8242 43.0977 20.6308 42.9778C20.4374 42.8579 20.278 42.6906 20.1675 42.4916C20.0571 42.2927 19.9994 42.0688 20 41.8413V24.8239C20.0001 24.5764 20.0692 24.3338 20.1994 24.1232C20.3296 23.9127 20.5159 23.7426 20.7373 23.6319L26.808 20.5959C27.1781 20.411 27.5862 20.3147 28 20.3147C28.4138 20.3147 28.8219 20.411 29.192 20.5959L34.808 23.4039Z" stroke="#51A2FF" stroke-width="2.66667" stroke-linecap="round" stroke-linejoin="round"/>
<path d="M36 23.6853V43.6853" stroke="#51A2FF" stroke-width="2.66667" stroke-linecap="round" stroke-linejoin="round"/>
<path d="M28 20.3147V40.3147" stroke="#51A2FF" stroke-width="2.66667" stroke-linecap="round" stroke-linejoin="round"/>
</svg>
