<svg width="64" height="64" viewBox="0 0 64 64" fill="none" xmlns="http://www.w3.org/2000/svg">
<path d="M0 14C0 6.26801 6.26801 0 14 0H50C57.732 0 64 6.26801 64 14V50C64 57.732 57.732 64 50 64H14C6.26801 64 0 57.732 0 50V14Z" fill="#E2FFBF" fill-opacity="0.1"/>
<path fill-rule="evenodd" clip-rule="evenodd" d="M31.5 10C30.29 10 29.176 10.3 27.958 10.804C26.78 11.292 25.412 12.01 23.71 12.904L19.574 15.074C17.484 16.17 15.814 17.048 14.52 17.91C13.184 18.804 12.152 19.744 11.402 21.018C10.654 22.288 10.318 23.664 10.156 25.302C10 26.892 10 28.846 10 31.306V31.694C10 34.154 10 36.108 10.156 37.698C10.318 39.338 10.656 40.712 11.402 41.982C12.152 43.256 13.182 44.196 14.522 45.09C15.812 45.952 17.484 46.83 19.574 47.926L23.71 50.096C25.412 50.99 26.78 51.708 27.958 52.196C29.178 52.7 30.29 53 31.5 53C32.71 53 33.824 52.7 35.042 52.196C36.22 51.708 37.588 50.99 39.29 50.096L43.426 47.928C45.516 46.83 47.186 45.952 48.478 45.09C49.818 44.196 50.848 43.256 51.598 41.982C52.346 40.712 52.682 39.336 52.844 37.698C53 36.108 53 34.154 53 31.696V31.304C53 28.846 53 26.892 52.844 25.302C52.682 23.662 52.344 22.288 51.598 21.018C50.848 19.744 49.818 18.804 48.478 17.91C47.188 17.048 45.516 16.17 43.426 15.074L39.29 12.904C37.588 12.01 36.22 11.292 35.042 10.804C33.822 10.3 32.71 10 31.5 10ZM25.04 15.592C26.82 14.658 28.068 14.006 29.104 13.578C30.112 13.16 30.822 13 31.5 13C32.18 13 32.888 13.16 33.896 13.578C34.932 14.006 36.178 14.658 37.958 15.592L41.958 17.692C44.138 18.834 45.668 19.64 46.814 20.404C47.378 20.782 47.82 21.132 48.18 21.484L41.518 24.814L24.518 15.866L25.04 15.592ZM21.39 17.508L21.042 17.692C18.862 18.834 17.332 19.64 16.188 20.404C15.7002 20.721 15.2429 21.0825 14.822 21.484L31.5 29.824L38.214 26.464L21.802 17.828C21.6481 17.7446 21.5089 17.6365 21.39 17.508ZM13.376 24.114C13.276 24.542 13.198 25.028 13.142 25.594C13.002 27.022 13 28.828 13 31.382V31.616C13 34.172 13 35.978 13.142 37.404C13.28 38.798 13.542 39.7 13.988 40.46C14.432 41.214 15.074 41.852 16.188 42.596C17.332 43.36 18.862 44.166 21.042 45.308L25.042 47.408C26.822 48.342 28.068 48.994 29.104 49.422C29.4293 49.5567 29.728 49.6667 30 49.752V32.426L13.376 24.114ZM33 49.75C33.272 49.666 33.5707 49.5567 33.896 49.422C34.932 48.994 36.178 48.342 37.958 47.408L41.958 45.308C44.138 44.164 45.668 43.36 46.814 42.596C47.926 41.852 48.568 41.214 49.014 40.46C49.46 39.7 49.72 38.8 49.858 37.404C49.998 35.978 50 34.172 50 31.618V31.384C50 28.828 50 27.022 49.858 25.596C49.8109 25.0983 49.7328 24.604 49.624 24.116L43 27.426V33.5C43 33.8978 42.842 34.2794 42.5607 34.5607C42.2794 34.842 41.8978 35 41.5 35C41.1022 35 40.7206 34.842 40.4393 34.5607C40.158 34.2794 40 33.8978 40 33.5V28.928L33 32.428V49.75Z" fill="#E2FFBF"/>
</svg>
