<svg width="64" height="64" viewBox="0 0 64 64" fill="none" xmlns="http://www.w3.org/2000/svg">
<path d="M0 14C0 6.26801 6.26801 0 14 0H50C57.732 0 64 6.26801 64 14V50C64 57.732 57.732 64 50 64H14C6.26801 64 0 57.732 0 50V14Z" fill="#FB2C36" fill-opacity="0.1"/>
<path d="M41.3334 34.6667C43.3201 32.72 45.3334 30.3867 45.3334 27.3333C45.3334 25.3884 44.5608 23.5232 43.1855 22.1479C41.8103 20.7726 39.945 20 38.0001 20C35.6534 20 34.0001 20.6667 32.0001 22.6667C30.0001 20.6667 28.3467 20 26.0001 20C24.0552 20 22.1899 20.7726 20.8146 22.1479C19.4394 23.5232 18.6667 25.3884 18.6667 27.3333C18.6667 30.4 20.6667 32.7333 22.6667 34.6667L32.0001 44L41.3334 34.6667Z" stroke="#FF6467" stroke-width="2.66667" stroke-linecap="round" stroke-linejoin="round"/>
</svg>
