<svg width="64" height="64" viewBox="0 0 64 64" fill="none" xmlns="http://www.w3.org/2000/svg">
<path d="M0 14C0 6.26801 6.26801 0 14 0H50C57.732 0 64 6.26801 64 14V50C64 57.732 57.732 64 50 64H14C6.26801 64 0 57.732 0 50V14Z" fill="#FF6900" fill-opacity="0.1"/>
<path d="M21.3332 34.6667C21.0809 34.6675 20.8335 34.5968 20.6198 34.4627C20.4061 34.3285 20.2349 34.1365 20.126 33.9089C20.0171 33.6813 19.975 33.4275 20.0046 33.1769C20.0342 32.9263 20.1343 32.6893 20.2932 32.4933L33.4932 18.8933C33.5923 18.7791 33.7272 18.7018 33.8759 18.6743C34.0246 18.6468 34.1782 18.6707 34.3115 18.742C34.4449 18.8133 34.55 18.9279 34.6097 19.0668C34.6694 19.2058 34.68 19.3609 34.6399 19.5067L32.0799 27.5333C32.0044 27.7354 31.9791 27.9527 32.006 28.1667C32.033 28.3807 32.1115 28.5849 32.2347 28.7619C32.3579 28.9389 32.5223 29.0834 32.7136 29.1829C32.9049 29.2824 33.1176 29.334 33.3332 29.3333H42.6666C42.9189 29.3325 43.1663 29.4032 43.38 29.5374C43.5937 29.6715 43.7649 29.8635 43.8738 30.0911C43.9828 30.3187 44.0249 30.5726 43.9952 30.8231C43.9656 31.0737 43.8655 31.3107 43.7066 31.5067L30.5066 45.1067C30.4076 45.221 30.2726 45.2982 30.1239 45.3257C29.9752 45.3532 29.8216 45.3293 29.6883 45.258C29.5549 45.1867 29.4498 45.0722 29.3901 44.9332C29.3305 44.7943 29.3198 44.6392 29.3599 44.4933L31.9199 36.4667C31.9954 36.2646 32.0207 36.0473 31.9938 35.8333C31.9668 35.6194 31.8884 35.4151 31.7651 35.2381C31.6419 35.0611 31.4775 34.9167 31.2862 34.8171C31.0949 34.7176 30.8822 34.666 30.6666 34.6667H21.3332Z" stroke="#FF8904" stroke-width="2.66667" stroke-linecap="round" stroke-linejoin="round"/>
</svg>
