<svg width="64" height="64" viewBox="0 0 64 64" fill="none" xmlns="http://www.w3.org/2000/svg">
<path d="M0 14C0 6.26801 6.26801 0 14 0H50C57.732 0 64 6.26801 64 14V50C64 57.732 57.732 64 50 64H14C6.26801 64 0 57.732 0 50V14Z" fill="#A75757" fill-opacity="0.1"/>
<path d="M33.6613 53.849L33.6369 53.8531L33.4791 53.9255L33.4347 53.9338L33.4036 53.9255L33.2458 53.8531C33.2221 53.8462 33.2043 53.8497 33.1925 53.8635L33.1836 53.8841L33.1458 54.7698L33.1569 54.8112L33.1791 54.8381L33.4102 54.9913L33.4436 54.9995L33.4702 54.9913L33.7013 54.8381L33.728 54.805L33.7369 54.7698L33.6991 53.8862C33.6932 53.8641 33.6806 53.8517 33.6613 53.849ZM34.2502 53.6151L34.2213 53.6193L33.8102 53.8117L33.788 53.8324L33.7813 53.8552L33.8213 54.745L33.8325 54.7698L33.8502 54.7843L34.2969 54.9768C34.325 54.9837 34.3465 54.9781 34.3613 54.9602L34.3702 54.9312L34.2947 53.6607C34.2873 53.6358 34.2725 53.6207 34.2502 53.6151ZM32.6613 53.6193C32.6515 53.6137 32.6398 53.612 32.6287 53.6143C32.6175 53.6166 32.6077 53.6228 32.6013 53.6317L32.588 53.6607L32.5125 54.9312C32.5139 54.9561 32.5265 54.9726 32.5502 54.9809L32.5836 54.9768L33.0302 54.7843L33.0525 54.7678L33.0613 54.745L33.0991 53.8552L33.0925 53.8303L33.0702 53.8097L32.6613 53.6193Z" fill="#A75757"/>
<path d="M33.9037 10.2633L49.4593 15.6954C50.3067 15.9911 51.0369 16.5207 51.5523 17.2133C52.0677 17.906 52.3439 18.7286 52.3438 19.5713V30.6692C52.3438 34.1279 51.3096 37.5184 49.3569 40.4606C47.4043 43.4028 44.6103 45.7806 41.2882 47.3274L33.8349 50.7956C33.3719 51.0113 32.8614 51.1235 32.3438 51.1235C31.8261 51.1235 31.3156 51.0113 30.8526 50.7956L23.3993 47.3254C20.0772 45.7785 17.2832 43.4008 15.3306 40.4585C13.3779 37.5163 12.3437 34.1259 12.3438 30.6671V19.5733C12.3432 18.7303 12.6191 17.9072 13.1346 17.2142C13.65 16.5212 14.3805 15.9913 15.2282 15.6954L30.7838 10.2633C31.7896 9.91223 32.8979 9.91223 33.9037 10.2633ZM32.3438 22.2759C31.7995 22.276 31.2741 22.462 30.8674 22.7988C30.4606 23.1357 30.2008 23.5998 30.1371 24.1031L30.1215 24.3452V28.4839H25.6771C25.1107 28.4845 24.5659 28.6865 24.154 29.0486C23.7422 29.4106 23.4943 29.9055 23.4611 30.432C23.428 30.9585 23.6119 31.477 23.9755 31.8815C24.339 32.2859 24.8547 32.5459 25.4171 32.6081L25.6771 32.6226H30.1215V36.7613C30.1222 37.2888 30.339 37.7961 30.7279 38.1796C31.1167 38.5631 31.6481 38.7939 32.2135 38.8248C32.7789 38.8557 33.3357 38.6844 33.77 38.3459C34.2044 38.0074 34.4835 37.5272 34.5504 37.0034L34.566 36.7613V32.6226H39.0104C39.5768 32.622 40.1216 32.4201 40.5335 32.058C40.9453 31.6959 41.1932 31.2011 41.2264 30.6746C41.2596 30.148 41.0756 29.6296 40.7121 29.2251C40.3485 28.8206 39.8329 28.5607 39.2704 28.4984L39.0104 28.4839H34.566V24.3452C34.566 23.7964 34.3318 23.2701 33.9151 22.882C33.4984 22.4939 32.9331 22.2759 32.3438 22.2759Z" fill="#A75757"/>
</svg>
